<svg xmlns="http://www.w3.org/2000/svg" width="127" height="96" viewBox="0 0 127 96" fill="none">
  <path d="M107.622 8.18783C99.4407 4.42983 90.6714 1.64097 81.5045 0C80.2961 2.27472 78.8952 5.33037 77.9561 7.78225C68.1734 6.25037 58.5089 6.25037 48.9312 7.78225C47.9921 5.33037 46.5579 2.27472 45.3361 0C36.1558 1.64097 27.3731 4.44558 19.1919 8.21932C2.76214 32.9011 -1.69486 57.0332 0.531997 80.8533C11.4085 88.8993 21.9728 93.7783 32.3481 96.9992C34.9152 93.3155 37.1948 89.4046 39.1197 85.3251C35.4169 84.0374 31.8546 82.4268 28.4661 80.5323C29.4052 79.8324 30.3174 79.1011 31.1894 78.3539C51.9709 88.0308 74.6132 88.0308 95.1432 78.3539C96.0287 79.1011 96.9409 79.8324 97.865 80.5323C94.4632 82.4268 90.9009 84.0374 87.1981 85.3251C89.123 89.4046 91.3892 93.3155 93.9697 96.9992C104.361 93.7783 114.941 88.8993 125.818 80.8533C128.467 52.9852 121.462 29.0688 107.622 8.18783ZM42.1895 66.1563C35.9633 66.1563 30.8236 60.3953 30.8236 53.4123C30.8236 46.4293 35.8565 40.6525 42.1895 40.6525C48.5225 40.6525 53.6622 46.4136 53.5554 53.4123C53.5688 60.3953 48.5225 66.1563 42.1895 66.1563ZM84.1649 66.1563C77.9387 66.1563 72.799 60.3953 72.799 53.4123C72.799 46.4293 77.8319 40.6525 84.1649 40.6525C90.4979 40.6525 95.6376 46.4136 95.5308 53.4123C95.5308 60.3953 90.4979 66.1563 84.1649 66.1563Z" fill="black"/>
</svg>